<svg xmlns="http://www.w3.org/2000/svg" viewBox="0 0 1000 350">
  <path d="M334.5,350.0L333.7,350.0L332.9,350.0L327.1,350.0L320.9,350.0L317.4,350.0L317.4,350.0L315.9,350.0L322.1,350.0L328.1,350.0L330.2,350.0L331.6,350.0L334.5,350.0Z M57.8,350.0L52.4,350.0L48.8,350.0L47.2,350.0L47.0,350.0L45.2,350.0L46.9,350.0L52.1,350.0L54.9,350.0L57.0,350.0L57.8,350.0Z M374.6,350.0L378.0,350.0L379.2,350.0L379.5,350.0L379.6,350.0L375.3,350.0L370.8,350.0L365.6,350.0L359.8,350.0L353.2,350.0L349.5,350.0L350.0,350.0L356.0,350.0L358.4,350.0L360.1,350.0L361.4,350.0L363.0,350.0L364.8,350.0L366.2,350.0L370.4,350.0L374.6,350.0Z M163.3,350.0L166.9,350.0L170.2,350.0L168.6,350.0L166.0,350.0L162.2,350.0L159.4,350.0L160.0,350.0L163.3,350.0Z M151.2,350.0L155.5,350.0L153.8,350.0L150.2,350.0L146.4,350.0L148.5,350.0L151.2,350.0Z M225.1,350.0L228.1,350.0L231.1,350.0L232.8,350.0L230.6,350.0L227.2,350.0L223.8,350.0L220.0,350.0L217.2,350.0L215.8,350.0L217.5,350.0L221.0,350.0L225.1,350.0Z M309.9,350.0L310.2,350.0L309.7,350.0L308.9,350.0L305.7,350.0L302.6,350.0L298.9,350.0L300.3,350.0L297.0,350.0L293.9,350.0L291.8,350.0L291.6,350.0L294.7,350.0L296.6,350.0L299.8,350.0L300.6,350.0L300.8,350.0L300.7,350.0L302.3,350.0L304.9,350.0L306.3,350.0L307.0,350.0L308.2,350.0L309.1,350.0L309.9,350.0Z M0.0,350.0L0.2,350.0L2.6,350.0L7.6,350.0L7.9,350.0L8.7,350.0L9.7,350.0L10.5,350.0L10.9,350.0L11.3,350.0L11.6,350.0L15.6,350.0L19.1,350.0L19.8,350.0L27.9,350.0L30.6,350.0L31.9,350.0L36.1,350.0L43.9,350.0L50.2,350.0L60.9,350.0L68.9,350.0L80.7,350.0L87.4,350.0L94.8,350.0L102.5,350.0L103.1,350.0L92.1,350.0L83.2,350.0L80.8,350.0L73.4,350.0L73.9,350.0L74.9,350.0L75.9,350.0L75.4,350.0L70.8,350.0L68.6,350.0L64.3,350.0L71.1,350.0L77.5,350.0L81.5,350.0L86.5,350.0L91.1,350.0L93.3,350.0L92.3,350.0L88.7,350.0L84.6,350.0L78.9,350.0L73.9,350.0L68.5,350.0L66.7,350.0L63.1,350.0L61.0,350.0L60.1,350.0L61.5,350.0L64.0,350.0L68.5,350.0L72.9,350.0L75.2,350.0L79.6,350.0L83.3,350.0L86.8,350.0L90.0,350.0L94.2,350.0L94.0,350.0L93.1,350.0L93.9,350.0L97.5,350.0L99.1,350.0L103.4,350.0L106.6,350.0L110.5,350.0L114.3,350.0L118.0,350.0L121.0,350.0L124.4,350.0L126.6,350.0L128.5,350.0L132.6,350.0L136.3,350.0L140.1,350.0L143.8,350.0L147.5,350.0L151.7,350.0L155.5,350.0L159.6,350.0L163.7,350.0L167.5,350.0L170.3,350.0L173.7,350.0L177.2,350.0L180.5,350.0L183.5,350.0L185.3,350.0L186.3,350.0L188.1,350.0L190.9,350.0L194.3,350.0L198.0,350.0L201.2,350.0L205.1,350.0L208.7,350.0L212.9,350.0L216.6,350.0L220.4,350.0L221.9,350.0L220.1,350.0L218.7,350.0L215.2,350.0L213.6,350.0L213.0,350.0L212.0,350.0L214.1,350.0L217.8,350.0L221.4,350.0L224.6,350.0L227.5,350.0L228.6,350.0L232.4,350.0L236.0,350.0L239.8,350.0L243.2,350.0L246.1,350.0L249.8,350.0L252.1,350.0L254.4,350.0L257.6,350.0L261.1,350.0L263.4,350.0L267.0,350.0L270.4,350.0L273.7,350.0L275.9,350.0L277.0,350.0L279.7,350.0L283.5,350.0L286.4,350.0L288.3,350.0L292.0,350.0L294.9,350.0L297.7,350.0L301.1,350.0L305.0,350.0L308.5,350.0L311.2,350.0L312.9,350.0L313.5,350.0L313.2,350.0L312.3,350.0L311.3,350.0L310.5,350.0L309.8,350.0L309.6,350.0L309.9,350.0L311.2,350.0L312.3,350.0L312.7,350.0L312.2,350.0L311.8,350.0L313.2,350.0L314.7,350.0L316.5,350.0L318.4,350.0L320.6,350.0L321.7,350.0L323.3,350.0L325.0,350.0L327.7,350.0L329.4,350.0L331.4,350.0L333.6,350.0L335.7,350.0L337.2,350.0L339.4,350.0L341.0,350.0L340.0,350.0L337.2,350.0L336.0,350.0L333.9,350.0L331.6,350.0L329.7,350.0L327.7,350.0L326.4,350.0L326.0,350.0L326.1,350.0L327.4,350.0L325.5,350.0L322.9,350.0L321.4,350.0L319.8,350.0L318.0,350.0L317.6,350.0L318.6,350.0L320.0,350.0L322.3,350.0L324.5,350.0L325.6,350.0L326.2,350.0L327.0,350.0L328.3,350.0L329.1,350.0L329.5,350.0L330.3,350.0L330.5,350.0L331.4,350.0L331.0,350.0L329.5,350.0L327.9,350.0L324.2,350.0L322.9,350.0L321.2,350.0L317.1,350.0L313.4,350.0L309.9,350.0L306.1,350.0L303.9,350.0L299.4,350.0L294.5,350.0L290.1,350.0L285.4,350.0L286.3,350.0L290.6,350.0L293.7,350.0L295.4,350.0L292.3,350.0L287.5,350.0L283.5,350.0L283.4,350.0L283.3,350.0L286.5,350.0L287.1,350.0L290.7,350.0L296.5,350.0L301.5,350.0L305.5,350.0L310.6,350.0L317.5,350.0L324.3,350.0L329.0,350.0L334.2,350.0L336.9,350.0L338.3,350.0L341.6,350.0L346.2,350.0L351.1,350.0L356.8,350.0L361.8,350.0L368.7,350.0L375.5,350.0L381.1,350.0L382.9,350.0L386.7,350.0L393.8,350.0L399.3,350.0L404.5,350.0L410.3,350.0L416.4,350.0L420.7,350.0L418.7,350.0L417.5,350.0L417.5,350.0L412.2,350.0L406.4,350.0L401.0,350.0L400.2,350.0L400.6,350.0L401.9,350.0L405.8,350.0L410.5,350.0L413.9,350.0L417.3,350.0L419.8,350.0L423.6,350.0L427.3,350.0L429.2,350.0L433.5,350.0L437.6,350.0L441.0,350.0L444.4,350.0L447.5,350.0L451.3,350.0L453.8,350.0L456.4,350.0L457.2,350.0L454.3,350.0L455.2,350.0L457.1,350.0L460.0,350.0L463.0,350.0L465.9,350.0L468.0,350.0L469.4,350.0L471.4,350.0L474.7,350.0L476.1,350.0L479.4,350.0L479.5,350.0L480.9,350.0L483.9,350.0L484.6,350.0L487.9,350.0L491.5,350.0L495.0,350.0L498.2,350.0L499.4,350.0L502.4,350.0L505.2,350.0L508.4,350.0L511.5,350.0L514.3,350.0L517.4,350.0L519.8,350.0L521.5,350.0L523.6,350.0L526.5,350.0L528.5,350.0L530.0,350.0L533.2,350.0L534.5,350.0L537.3,350.0L540.9,350.0L542.0,350.0L544.3,350.0L547.3,350.0L550.6,350.0L553.5,350.0L556.6,350.0L559.6,350.0L560.9,350.0L562.7,350.0L565.7,350.0L569.0,350.0L572.2,350.0L575.3,350.0L578.0,350.0L581.0,350.0L583.4,350.0L586.0,350.0L588.9,350.0L591.0,350.0L592.5,350.0L594.1,350.0L597.0,350.0L598.1,350.0L600.4,350.0L603.3,350.0L605.3,350.0L607.4,350.0L610.2,350.0L611.2,350.0L613.7,350.0L616.6,350.0L619.3,350.0L622.5,350.0L624.7,350.0L627.0,350.0L629.2,350.0L631.8,350.0L634.3,350.0L636.1,350.0L638.7,350.0L641.0,350.0L641.5,350.0L643.9,350.0L646.1,350.0L648.9,350.0L651.5,350.0L653.9,350.0L656.5,350.0L658.8,350.0L659.0,350.0L661.5,350.0L663.2,350.0L666.5,350.0L668.3,350.0L670.6,350.0L673.3,350.0L675.5,350.0L677.9,350.0L680.5,350.0L683.3,350.0L685.9,350.0L688.6,350.0L691.4,350.0L693.6,350.0L693.5,350.0L693.2,350.0L690.5,350.0L688.4,350.0L688.7,350.0L691.8,350.0L691.5,350.0L690.1,350.0L688.7,350.0L690.9,350.0L694.1,350.0L697.3,350.0L698.8,350.0L699.7,350.0L701.3,350.0L703.0,350.0L703.7,350.0L705.2,350.0L706.9,350.0L710.1,350.0L712.8,350.0L715.7,350.0L717.0,350.0L717.9,350.0L719.8,350.0L722.5,350.0L724.8,350.0L726.3,350.0L727.9,350.0L729.9,350.0L732.7,350.0L735.2,350.0L737.9,350.0L741.0,350.0L743.0,350.0L744.4,350.0L745.4,350.0L746.7,350.0L749.1,350.0L751.7,350.0L754.4,350.0L757.2,350.0L759.9,350.0L761.6,350.0L763.9,350.0L766.1,350.0L768.6,350.0L771.6,350.0L774.1,350.0L777.0,350.0L778.8,350.0L780.3,350.0L782.2,350.0L785.6,350.0L787.4,350.0L789.6,350.0L791.4,350.0L794.9,350.0L797.7,350.0L800.2,350.0L803.2,350.0L806.2,350.0L808.5,350.0L810.4,350.0L813.5,350.0L815.6,350.0L817.7,350.0L819.2,350.0L821.1,350.0L824.2,350.0L826.1,350.0L829.4,350.0L832.9,350.0L835.7,350.0L837.9,350.0L839.8,350.0L842.3,350.0L844.8,350.0L847.7,350.0L850.3,350.0L852.8,350.0L855.2,350.0L857.8,350.0L860.3,350.0L863.3,350.0L866.1,350.0L869.3,350.0L871.8,350.0L874.3,350.0L875.1,350.0L875.2,350.0L876.9,350.0L877.4,350.0L878.3,350.0L879.5,350.0L881.8,350.0L885.0,350.0L888.6,350.0L891.1,350.0L894.8,350.0L897.4,350.0L901.0,350.0L904.1,350.0L906.1,350.0L905.6,350.0L907.3,350.0L910.3,350.0L913.4,350.0L917.0,350.0L920.8,350.0L923.6,350.0L926.8,350.0L928.6,350.0L931.0,350.0L933.1,350.0L935.6,350.0L939.0,350.0L942.2,350.0L943.5,350.0L946.7,350.0L948.8,350.0L951.9,350.0L955.1,350.0L958.1,350.0L961.4,350.0L964.7,350.0L967.8,350.0L970.7,350.0L973.6,350.0L975.6,350.0L975.2,350.0L973.8,350.0L972.5,350.0L971.5,350.0L970.2,350.0L966.6,350.0L965.0,350.0L961.4,350.0L960.1,350.0L958.2,350.0L956.2,350.0L955.1,350.0L954.4,350.0L954.1,350.0L954.1,350.0L955.7,350.0L956.3,350.0L957.6,350.0L962.8,350.0L963.9,350.0L958.9,350.0L954.6,350.0L949.3,350.0L947.0,350.0L946.5,350.0L945.3,350.0L943.9,350.0L947.6,350.0L949.0,350.0L951.4,350.0L954.7,350.0L958.6,350.0L962.8,350.0L969.1,350.0L970.6,350.0L978.6,350.0L979.1,350.0L981.2,350.0L988.8,350.0L995.2,350.0L0.0,350.0Z M311.8,344.0L315.4,345.7L319.3,346.4L318.1,347.8L315.4,347.9L314.0,346.9L313.1,348.1L310.7,348.9L307.7,348.6L305.7,347.8L302.8,347.4L299.3,345.8L296.4,344.3L292.6,341.2L294.9,341.8L298.8,343.7L302.5,344.7L303.9,343.4L304.8,341.5L307.4,340.3L309.4,340.7L310.4,341.9L311.8,344.0Z M337.4,336.4L339.6,337.6L338.8,338.6L335.0,339.4L333.8,338.5L331.4,339.7L330.0,338.5L333.3,336.8L335.7,337.5L337.4,336.4Z M695.2,332.5L691.0,332.7L690.9,331.2L691.3,330.1L691.5,329.5L693.3,330.4L695.9,330.7L696.0,331.3L695.2,332.5Z M903.9,307.8L906.6,308.7L908.1,308.3L910.2,307.8L911.9,308.0L912.1,311.3L911.2,312.2L910.9,314.5L909.9,313.7L908.0,315.7L907.4,315.5L905.7,315.4L904.0,313.0L903.6,311.2L902.0,308.8L902.1,307.5L903.9,307.8Z M980.6,308.1L981.2,309.3L983.2,308.1L984.0,309.3L984.0,310.5L983.0,311.8L981.2,313.8L979.7,314.9L980.8,316.3L978.6,316.3L976.3,317.3L975.5,319.2L973.9,322.0L971.7,323.2L970.4,324.0L967.8,323.9L966.0,323.0L963.0,322.8L962.5,321.8L964.0,319.8L967.5,317.0L969.3,316.5L971.3,315.4L973.7,314.0L975.3,312.5L976.6,310.5L977.6,309.8L978.0,308.2L980.0,306.9L980.6,308.1Z M985.0,294.9L987.0,297.8L987.1,295.9L988.4,296.7L988.8,298.8L991.0,299.7L992.9,299.9L994.5,298.8L995.9,299.2L995.2,301.6L994.4,303.2L992.2,303.2L991.5,304.0L991.8,305.2L991.3,305.7L990.3,307.2L988.9,309.1L986.8,310.2L986.3,309.5L985.1,309.1L986.7,306.8L985.8,305.3L982.8,304.2L982.9,303.2L984.9,302.2L985.4,300.1L985.3,298.3L984.1,296.4L984.2,295.9L982.9,294.8L980.7,292.3L979.5,290.4L980.6,290.1L982.1,291.7L984.2,292.4L985.0,294.9Z M964.2,256.0L963.2,256.7L961.6,255.9L959.6,254.7L957.9,253.2L956.0,251.2L955.6,250.3L956.8,250.3L958.4,251.3L959.6,252.2L960.5,253.0L962.8,254.7L964.2,256.0Z M995.5,242.6L996.4,243.4L996.0,244.9L994.3,245.2L992.7,244.9L992.5,243.7L993.5,242.7L994.8,243.1L995.5,242.6Z M0.0,240.4L998.2,241.1L996.5,241.7L996.1,240.7L997.5,240.1L998.4,239.9L0.0,239.1L0.6,238.9L0.2,240.3L0.0,240.4Z M966.2,240.2L965.3,240.6L964.4,239.3L964.5,238.6L966.2,240.2Z M964.2,235.9L964.6,238.2L963.9,237.8L963.3,238.0L962.9,237.2L962.9,235.1L964.2,235.9Z M639.0,232.1L639.5,235.4L640.2,236.7L639.9,238.1L639.4,238.9L638.5,237.3L638.0,238.1L638.5,240.1L638.3,241.3L637.5,242.0L637.3,244.3L636.2,247.6L634.9,251.4L633.1,256.6L632.1,260.5L630.8,263.7L628.6,264.4L626.1,265.6L624.5,264.8L622.3,263.9L621.6,262.4L621.4,259.9L620.4,257.7L620.1,255.7L620.6,253.7L621.9,253.2L621.9,252.3L623.3,250.2L623.5,248.4L622.9,247.1L622.3,245.4L622.1,242.8L623.1,241.3L623.5,239.5L624.8,239.4L626.4,238.8L627.4,238.3L628.6,238.3L630.2,236.7L632.5,235.0L633.3,233.6L633.0,232.4L634.1,232.7L635.7,230.8L635.7,229.1L636.7,227.9L637.6,229.1L638.4,230.3L639.0,232.1Z M898.8,232.7L899.8,234.9L901.6,233.8L902.5,235.0L903.8,236.1L903.5,237.3L904.1,239.7L904.5,241.1L905.2,241.4L906.0,243.8L905.7,245.2L906.6,247.1L909.6,248.6L911.6,249.9L913.5,251.1L913.1,251.8L914.7,253.5L915.8,256.5L916.9,255.9L918.0,257.1L918.7,256.7L919.2,259.6L921.1,261.3L922.4,262.4L924.6,264.6L925.4,266.9L925.4,268.4L925.3,270.2L926.6,272.5L926.4,275.0L925.9,276.3L925.2,278.8L925.2,280.3L924.7,282.3L923.5,284.9L921.4,286.2L920.4,288.4L919.5,289.8L918.6,292.2L917.6,293.5L916.9,295.6L916.5,297.5L916.7,298.4L915.1,299.4L912.0,299.5L909.4,300.6L908.1,301.7L906.4,302.9L904.1,301.6L902.4,301.2L902.9,299.7L901.3,300.2L898.9,302.2L896.5,301.5L894.9,301.1L893.3,300.9L890.7,300.1L888.9,298.3L888.3,296.2L887.7,294.8L886.3,293.7L883.7,293.4L884.6,292.0L883.9,290.0L882.5,291.9L880.1,292.4L881.5,290.9L882.0,289.2L883.0,287.9L882.8,285.8L880.5,288.2L878.8,289.2L877.7,291.4L875.6,290.2L875.7,288.7L873.9,286.7L872.5,285.7L873.0,285.0L869.4,283.4L867.5,283.3L864.8,281.9L859.8,282.2L856.2,283.2L853.1,284.1L850.4,283.9L847.5,285.4L845.1,286.0L844.5,287.5L843.5,288.6L841.1,288.7L839.4,288.9L836.9,288.4L834.9,288.7L833.0,288.8L831.4,290.3L830.6,290.2L829.2,291.0L827.8,291.8L825.8,291.7L824.0,291.7L821.0,290.0L819.5,289.4L819.6,287.8L821.0,287.5L821.4,286.8L821.3,285.8L821.7,283.9L821.4,282.3L819.9,279.4L819.4,277.9L819.6,276.3L818.4,274.5L818.4,273.7L817.1,272.5L816.8,270.4L815.2,268.2L814.8,267.0L816.0,268.2L815.1,265.6L816.5,266.4L817.3,267.5L817.3,266.1L815.9,263.9L815.6,263.0L815.0,262.2L815.3,260.6L815.8,259.9L816.2,258.5L815.9,256.9L817.1,254.9L817.3,257.0L818.5,255.1L820.7,254.2L822.1,253.0L824.2,251.9L825.5,251.7L826.2,252.1L828.4,251.0L830.1,250.7L830.5,250.1L831.3,249.9L832.8,249.9L835.7,249.1L837.2,247.9L837.9,246.4L839.6,245.0L839.7,243.9L839.8,242.4L841.7,240.0L842.9,242.4L844.1,241.9L843.1,240.5L843.9,239.2L845.2,239.8L845.5,237.7L847.0,236.3L847.7,235.2L849.1,234.7L849.1,234.0L850.3,234.3L850.4,233.6L851.6,233.2L853.0,232.8L855.0,234.1L856.6,235.7L858.3,235.8L860.1,236.0L859.5,234.5L860.8,232.3L862.1,231.5L861.6,230.9L862.8,229.3L864.5,228.3L865.9,228.6L868.3,228.1L868.2,226.7L866.2,225.8L867.7,225.4L869.5,226.0L871.0,227.2L873.3,227.9L874.1,227.6L875.8,228.5L877.4,227.7L878.5,227.9L879.1,227.4L880.4,228.8L879.7,230.2L878.6,231.4L877.7,231.5L878.0,232.6L877.2,234.0L876.2,235.3L876.4,236.1L878.6,237.6L880.7,238.5L882.2,239.5L884.2,241.1L885.0,241.1L886.4,241.8L886.8,242.7L889.5,243.6L891.3,242.7L891.9,241.2L892.4,240.0L892.8,238.4L893.6,236.2L893.2,234.9L893.4,234.1L893.1,232.5L893.5,230.4L894.0,229.8L893.6,228.9L894.2,227.4L894.8,225.9L894.8,225.1L895.9,224.1L896.7,225.4L896.8,227.2L897.5,227.5L897.7,228.7L898.7,230.1L898.9,231.7L898.8,232.7Z M950.3,223.6L951.1,224.5L949.2,224.5L948.1,222.8L949.8,223.5L950.3,223.6Z M835.3,222.9L834.1,222.9L830.5,221.0L833.1,220.4L834.5,221.3L835.5,222.1L835.3,222.9Z M946.8,221.9L945.7,221.9L944.0,221.7L943.4,221.2L943.6,220.1L945.4,220.6L946.4,221.1L946.8,221.9Z M949.1,221.1L948.7,221.6L946.6,219.2L946.1,217.6L947.0,217.6L948.0,219.8L949.1,221.1Z M845.7,222.6L843.3,223.2L842.9,222.9L843.2,221.9L844.4,220.2L847.1,219.1L847.5,218.5L849.8,217.9L851.8,217.8L852.7,217.4L853.7,217.8L852.7,218.5L849.8,219.7L847.5,220.5L845.7,222.6Z M827.5,216.9L828.5,217.7L830.2,217.4L830.9,218.6L827.7,219.2L825.8,219.6L824.3,219.5L825.2,217.9L826.8,217.9L827.5,216.9Z M841.4,216.9L841.0,218.5L836.8,219.3L833.1,218.9L833.1,217.9L835.3,217.3L837.1,218.2L838.9,217.9L841.4,216.9Z M944.1,217.6L944.2,218.2L942.0,217.0L940.5,216.0L939.5,215.1L939.9,214.8L941.2,215.4L943.4,216.7L944.1,217.6Z M937.6,214.9L937.0,215.0L935.8,214.4L934.7,213.2L934.8,212.8L936.5,213.9L937.6,214.9Z M801.7,213.3L807.1,213.5L807.7,212.4L812.8,213.7L813.8,215.5L818.0,216.0L821.4,217.7L818.2,218.8L815.2,217.6L812.7,217.7L809.8,217.5L807.2,217.0L804.0,215.9L801.9,215.7L800.8,216.0L795.7,214.9L795.2,213.7L792.7,213.5L794.6,210.8L798.0,211.0L800.2,212.1L801.3,212.3L801.7,213.3Z M874.2,211.7L872.8,213.6L872.5,211.5L873.0,210.5L873.6,209.6L874.2,210.4L874.2,211.7Z M933.0,213.4L932.2,213.7L931.0,212.6L929.8,210.8L929.2,208.7L929.6,208.5L929.9,209.3L930.7,209.9L932.1,211.7L933.4,212.6L933.0,213.4Z M922.2,209.7L920.7,209.9L920.3,210.7L918.8,211.3L917.3,212.0L915.9,212.0L913.6,211.2L912.0,210.4L912.2,209.5L914.7,210.0L916.2,209.7L916.7,208.4L917.1,208.3L917.3,209.8L918.9,209.6L919.7,208.7L921.2,207.7L920.9,206.0L922.6,206.0L923.2,206.4L923.1,208.0L922.2,209.7Z M853.5,204.1L852.4,205.0L850.5,204.5L850.0,203.3L852.8,203.1L853.5,204.1Z M862.4,203.0L863.4,205.2L861.1,204.0L858.8,203.8L857.2,204.0L855.3,203.9L855.9,202.3L859.4,202.2L862.4,203.0Z M925.4,206.9L924.5,207.7L924.0,206.0L923.3,205.0L922.1,204.1L920.5,202.9L918.5,202.1L919.3,201.4L920.8,202.2L921.7,202.8L922.9,203.4L924.0,204.6L925.1,205.5L925.4,206.9Z M872.6,197.6L873.4,202.1L876.3,203.8L878.6,200.9L881.8,199.2L884.2,199.2L886.6,200.1L888.7,201.1L891.7,201.7L896.5,203.6L901.6,205.2L903.5,206.6L905.1,208.0L905.5,209.6L910.1,211.3L910.8,212.8L908.2,213.1L908.9,215.0L911.3,216.8L913.1,219.7L914.7,219.6L914.6,220.9L916.8,221.3L915.9,221.9L918.9,223.0L918.6,223.8L916.7,224.0L916.1,223.3L913.7,223.0L910.9,222.6L908.7,220.8L907.1,219.3L905.7,216.9L902.1,215.6L899.7,216.4L898.0,217.3L898.4,219.4L896.2,220.4L894.6,219.9L891.8,219.8L889.3,217.5L886.5,216.9L885.8,217.7L882.3,217.8L883.4,215.5L885.2,214.8L884.5,211.8L883.1,209.4L877.7,207.1L875.5,206.8L871.3,204.3L870.5,205.6L869.4,205.9L868.8,204.9L868.8,203.6L866.6,202.3L869.6,201.3L871.6,201.3L871.4,200.6L867.3,200.6L866.2,198.9L863.7,198.4L862.6,197.0L866.3,196.4L867.7,195.5L872.2,196.6L872.6,197.6Z M847.9,190.5L845.7,193.3L843.6,193.8L840.9,193.2L836.3,193.4L833.8,193.8L833.4,195.9L835.9,198.4L837.4,197.1L842.6,196.2L842.4,197.4L841.2,197.0L840.0,198.7L837.5,199.7L840.1,203.3L839.6,204.3L842.1,207.5L842.1,209.3L840.6,210.1L839.5,209.1L840.9,206.8L838.2,207.9L837.5,207.2L837.8,206.1L835.8,204.5L836.0,201.7L834.2,202.6L834.4,205.8L834.5,209.8L832.8,210.2L831.6,209.4L832.4,206.8L831.9,204.2L830.8,204.1L829.9,202.2L831.1,200.4L831.5,198.2L832.8,194.0L833.4,192.9L835.8,190.8L838.0,191.6L841.5,192.0L844.7,191.9L847.4,189.9L847.9,190.5Z M857.5,191.3L857.3,193.7L855.9,193.5L855.5,195.1L856.6,196.6L855.8,196.9L854.7,195.2L853.9,191.6L854.4,189.4L855.4,188.4L855.6,189.9L857.2,190.2L857.5,191.3Z M793.9,210.7L790.9,210.8L788.5,208.4L785.0,206.2L783.8,204.5L781.7,202.2L780.3,200.1L778.2,196.3L775.7,193.9L774.9,191.5L773.9,189.4L771.4,187.6L769.9,185.3L767.8,183.7L764.9,180.6L764.7,179.2L766.5,179.3L770.8,179.9L773.2,182.6L775.4,184.5L776.9,185.6L779.6,188.6L782.4,188.7L784.7,190.6L786.3,192.9L788.4,194.2L787.3,196.4L788.9,197.4L789.9,197.5L790.4,199.4L791.4,200.9L793.4,201.2L794.7,202.9L794.0,206.4L793.9,210.7Z M827.4,189.4L830.5,191.9L827.3,192.3L826.3,194.2L826.4,196.7L823.8,198.6L823.7,201.3L822.6,205.6L822.2,204.6L819.1,205.9L818.0,204.2L816.0,204.0L814.6,203.1L811.3,204.1L810.3,202.8L808.5,202.9L806.2,202.6L805.7,198.9L804.4,198.1L803.0,195.7L802.6,193.3L803.0,190.7L804.6,188.9L806.7,189.8L808.8,189.3L809.4,187.0L810.5,186.4L813.9,185.8L815.9,183.6L817.2,181.9L818.3,180.8L820.7,179.3L822.8,177.4L824.2,175.2L825.4,175.2L826.8,176.6L826.9,177.8L828.7,178.6L831.1,179.4L830.9,180.5L829.0,180.6L829.5,182.0L827.4,183.0L825.9,185.5L827.9,188.1L827.4,189.4Z M851.0,171.1L851.3,172.9L851.5,174.5L850.5,177.0L849.5,174.2L848.2,175.6L849.1,177.6L848.3,178.9L845.1,177.3L844.3,175.3L845.1,174.0L843.4,172.7L842.5,173.8L841.2,173.7L839.1,175.3L838.7,174.5L839.8,172.1L841.5,171.3L843.0,170.3L844.0,171.6L846.1,170.8L846.6,169.6L848.5,169.5L848.4,167.3L850.6,168.7L850.8,170.0L851.0,171.1Z M725.6,177.2L723.2,177.9L721.9,175.7L721.4,171.7L722.6,167.2L724.6,168.7L725.8,170.7L727.2,173.5L726.8,176.4L725.6,177.2Z M330.7,166.4L328.4,166.7L327.9,166.4L328.7,165.7L328.7,164.6L330.3,164.2L330.8,164.3L330.7,166.4Z M844.4,165.9L843.4,166.8L842.5,168.6L841.7,169.4L839.9,167.5L840.5,166.7L841.2,165.9L841.5,164.2L843.0,164.1L842.6,165.9L844.7,163.2L844.4,165.9Z M829.2,168.6L825.5,171.2L826.8,169.3L828.8,167.5L830.5,165.6L832.0,162.9L832.5,165.1L830.6,166.7L829.2,168.6Z M838.6,161.4L840.2,162.3L842.0,162.3L841.9,163.4L840.7,164.6L838.9,165.4L838.8,164.2L839.0,162.7L838.6,161.4Z M848.6,160.7L849.4,163.8L847.3,163.0L847.3,164.0L848.0,165.7L846.7,166.3L846.6,164.3L845.7,164.2L845.3,162.5L846.9,162.7L846.9,161.7L845.2,159.6L847.8,159.6L848.6,160.7Z M837.6,158.1L836.8,160.5L835.6,159.2L834.2,157.0L836.6,157.1L837.6,158.1Z M837.0,143.0L838.7,143.8L839.6,143.1L839.8,143.8L839.4,145.0L840.3,147.0L839.6,149.3L837.9,150.2L837.5,152.4L838.1,154.6L839.6,154.9L840.8,154.6L844.3,156.2L844.0,157.7L844.9,158.3L844.7,159.6L842.5,158.3L841.5,156.8L840.8,157.8L839.0,156.2L836.5,156.6L835.1,156.0L835.2,154.8L836.1,154.1L835.3,153.5L834.9,154.5L833.5,152.9L833.1,151.6L833.0,149.0L834.1,149.9L834.4,145.6L835.3,143.0L837.0,143.0Z M317.8,143.8L317.1,144.5L315.0,144.5L313.4,144.6L313.2,143.4L313.6,143.0L315.9,143.0L317.3,143.3L317.8,143.8Z M286.4,144.8L285.5,145.3L284.0,144.8L282.4,143.8L282.7,143.2L283.9,143.0L284.5,143.1L286.4,143.3L287.9,144.0L288.3,144.8L286.4,144.8Z M298.4,139.2L300.8,139.7L301.1,139.2L303.3,139.2L305.0,139.9L305.7,139.9L306.2,140.8L307.7,140.8L307.6,141.6L308.9,141.7L310.2,142.7L309.2,143.9L307.9,143.3L306.6,143.4L305.7,143.3L305.2,143.8L304.1,143.9L303.7,143.3L302.8,143.7L301.7,145.6L301.0,145.1L300.8,144.3L299.0,143.8L297.7,144.0L296.0,143.8L294.7,144.4L293.2,143.5L293.4,142.6L296.0,143.0L298.1,143.2L299.1,142.6L297.8,141.4L297.8,140.3L296.1,139.9L296.7,139.1L298.4,139.2Z M806.5,142.6L804.1,143.9L801.8,143.0L801.7,140.6L803.1,139.4L806.1,138.6L807.7,138.7L808.4,139.7L807.1,141.0L806.5,142.6Z M67.9,141.4L67.5,141.9L66.8,141.5L66.9,140.7L66.5,139.7L66.6,139.4L67.1,139.0L66.9,138.4L67.1,138.1L67.3,138.2L68.3,138.7L68.8,138.9L69.3,139.3L70.0,140.3L69.9,140.4L68.8,141.0L67.9,141.4Z M66.5,137.1L65.5,137.3L65.0,136.7L64.7,136.5L64.7,136.3L65.0,136.1L66.0,136.3L66.7,136.8L66.5,137.1Z M64.6,135.6L64.5,135.9L63.0,135.8L63.2,135.5L64.6,135.6Z M62.1,135.2L61.9,135.4L61.7,135.3L60.8,135.2L60.4,134.6L60.3,134.5L61.0,134.1L61.3,134.3L62.1,135.2Z M57.4,133.4L57.0,133.7L56.1,133.2L56.3,133.0L56.7,132.7L57.3,132.7L57.4,133.4Z M278.7,131.2L279.8,132.2L282.4,131.9L283.4,132.6L285.7,134.3L287.4,135.5L288.4,135.5L290.0,136.1L289.8,136.8L291.9,137.0L294.0,138.1L293.6,138.7L291.8,139.1L289.9,139.2L288.0,139.0L284.0,139.3L285.9,137.7L284.7,137.0L283.0,136.8L282.0,136.0L281.3,134.5L279.8,134.6L277.2,133.8L276.3,133.2L272.7,132.8L271.8,132.3L272.8,131.6L270.1,131.4L268.1,132.9L266.9,132.9L266.5,133.6L265.1,133.9L264.0,133.6L265.4,132.8L266.0,131.8L267.3,131.1L268.7,130.6L270.8,130.3L271.5,130.0L273.9,130.2L276.1,130.3L278.7,131.2Z M284.6,128.4L283.9,128.6L283.2,127.0L282.2,126.2L282.8,124.4L283.6,124.5L284.6,126.8L284.6,128.4Z M836.6,131.1L835.4,133.4L833.9,131.1L833.6,129.0L835.3,126.3L837.5,124.2L838.8,125.0L838.3,126.7L836.6,131.1Z M283.8,120.6L280.8,121.1L280.6,120.0L281.9,119.8L283.8,119.9L283.8,120.6Z M286.1,120.6L285.6,122.6L285.1,122.2L285.2,120.8L283.9,119.7L283.9,119.3L286.1,120.6Z M874.0,99.6L874.3,100.5L872.8,102.2L871.6,101.3L870.2,102.0L869.5,103.6L867.7,102.8L867.7,101.5L869.2,99.8L870.8,100.2L872.0,99.0L874.0,99.6Z M596.0,95.4L594.2,96.5L594.4,97.1L594.5,97.3L591.6,98.4L590.2,98.1L589.6,96.9L590.9,96.8L591.1,96.8L591.5,96.1L593.5,96.2L596.0,95.4Z M565.8,95.3L567.4,96.2L569.5,96.0L571.6,96.2L571.5,96.7L573.0,96.4L572.7,97.2L568.7,97.4L568.7,97.0L565.3,96.4L565.8,95.3Z M543.1,88.2L542.1,90.4L542.5,91.3L541.9,92.7L539.8,91.7L538.4,91.4L534.5,90.0L534.9,88.5L538.2,88.8L541.0,88.5L543.1,88.2Z M525.6,80.0L527.2,81.9L526.9,85.6L525.6,85.4L524.5,86.4L523.4,85.6L523.3,82.3L522.7,80.7L524.2,80.8L525.6,80.0Z M891.6,91.3L890.6,93.5L891.0,94.9L889.6,96.8L886.0,98.1L881.2,98.3L877.2,101.5L875.3,100.4L875.2,98.3L870.4,99.0L867.1,100.3L863.8,100.3L866.7,102.4L864.8,107.1L863.0,108.2L861.7,107.2L862.4,104.7L860.6,103.9L859.5,102.0L862.1,101.1L863.5,99.4L866.3,97.9L868.4,96.0L873.9,95.2L876.9,95.8L879.8,90.8L881.6,92.1L885.7,89.4L887.3,88.3L889.0,84.9L888.6,81.8L889.7,80.0L892.7,79.5L894.2,83.4L894.1,85.6L891.6,88.4L891.6,91.3Z M526.6,77.4L525.6,79.5L524.4,78.9L523.7,77.1L524.3,76.0L526.1,75.0L526.6,77.4Z M899.7,71.7L901.7,72.3L903.7,71.2L904.3,74.3L900.2,75.0L897.7,77.8L893.4,75.9L891.8,78.9L888.8,79.0L888.4,76.2L889.8,74.1L892.7,73.9L893.5,70.1L894.4,67.9L897.6,70.8L899.7,71.7Z M323.2,65.1L325.2,65.5L327.7,65.4L326.4,66.6L325.4,66.8L321.8,65.6L321.1,64.6L322.2,63.8L323.2,65.1Z M328.3,58.0L327.0,58.1L323.4,57.2L320.8,55.9L321.7,55.7L325.4,56.4L328.2,57.5L328.3,58.0Z M156.9,59.7L155.5,60.1L151.0,58.8L150.1,57.8L147.6,56.9L147.1,56.1L144.3,55.6L143.2,54.1L143.5,53.4L146.4,54.0L148.1,54.4L150.7,54.7L151.6,55.7L153.0,57.0L155.8,58.2L156.9,59.7Z M344.1,53.6L342.2,56.1L344.0,55.1L345.9,55.7L344.9,56.7L347.4,57.5L348.7,56.8L351.5,57.6L350.6,59.7L352.5,59.2L352.9,60.7L353.8,62.4L352.6,64.8L351.3,64.9L349.5,64.4L350.1,62.2L349.3,61.8L346.1,64.2L344.5,64.1L346.4,62.8L343.7,62.1L340.8,62.3L335.4,62.2L334.9,61.4L336.7,60.4L335.5,59.7L337.8,58.0L340.7,53.6L342.4,52.0L344.8,51.0L346.1,51.1L345.6,51.9L344.1,53.6Z M131.4,44.3L134.0,44.1L133.2,47.3L135.6,49.5L134.5,49.5L132.8,48.2L131.8,46.9L130.4,46.1L129.9,44.9L130.1,44.0L131.4,44.3Z M899.0,53.5L901.8,58.4L897.7,57.5L896.0,61.5L898.7,64.3L898.6,66.3L896.5,64.6L894.7,66.8L894.2,64.4L894.5,61.7L894.2,58.7L894.8,56.6L894.9,52.9L893.3,50.2L893.6,46.4L896.1,45.1L895.0,43.8L896.3,43.4L897.0,45.3L897.9,47.9L897.9,50.7L899.0,53.5Z M481.1,49.3L476.2,50.9L472.3,50.5L474.5,47.6L473.1,44.8L476.9,42.6L479.0,41.3L481.3,41.2L484.3,42.9L482.8,44.8L483.2,46.8L481.1,49.3Z M535.2,40.0L533.6,42.2L530.7,40.7L530.3,39.5L534.4,38.6L535.2,40.0Z M75.0,35.8L72.2,36.8L70.8,36.1L70.4,34.8L72.9,33.8L74.4,33.4L76.2,33.6L77.4,34.5L75.0,35.8Z M491.7,31.6L488.7,34.6L491.5,34.2L494.6,34.2L493.8,36.5L491.3,39.0L494.2,39.1L496.9,42.7L498.8,43.2L500.5,46.3L501.3,47.4L504.7,47.9L504.3,49.7L502.9,50.5L504.0,52.0L501.5,53.4L497.8,53.4L493.1,54.2L491.8,53.6L490.0,54.9L487.4,54.6L485.4,55.7L484.0,55.1L488.0,52.2L490.5,51.6L486.2,51.1L485.4,50.0L488.3,49.2L486.8,47.7L487.3,45.8L491.4,46.1L491.8,44.5L489.9,42.7L486.5,42.2L485.9,41.5L486.9,40.3L486.0,39.5L484.5,40.8L484.3,38.1L482.9,36.7L483.9,33.8L486.1,31.6L488.3,31.8L491.7,31.6Z M40.1,28.0L38.4,28.5L36.5,27.9L34.9,27.2L37.6,26.7L39.8,27.0L40.1,28.0Z M279.8,21.8L278.7,23.2L277.5,23.0L276.8,22.2L276.9,22.0L278.0,21.2L279.1,21.2L279.8,21.8Z M272.5,20.2L269.3,21.8L267.3,21.7L266.7,21.0L268.8,19.7L272.6,19.7L272.5,20.2Z M23.0,17.3L24.7,17.8L26.4,17.5L28.7,18.2L31.4,18.6L31.2,18.9L29.1,19.5L27.0,18.9L25.9,18.4L23.5,18.6L22.8,18.3L23.0,17.3Z M263.4,12.1L264.0,13.3L265.4,12.9L267.0,13.6L270.0,14.5L273.2,15.4L273.5,16.7L275.5,16.5L277.5,17.4L275.0,18.3L270.7,17.6L269.1,16.4L266.4,17.9L262.4,19.3L261.5,17.7L257.7,17.9L260.1,16.6L260.5,14.4L261.4,11.8L263.4,12.1Z M459.7,9.8L459.1,11.6L462.2,13.5L458.6,15.7L450.6,17.6L448.2,18.1L444.5,17.7L436.8,16.8L439.5,15.5L433.5,14.2L438.4,13.7L438.3,12.8L432.4,12.2L434.3,10.4L438.5,10.0L442.8,11.9L447.1,10.3L450.6,11.1L455.1,9.6L459.7,9.8Z M289.3,7.9L286.1,8.1L285.5,6.7L286.6,5.1L289.2,4.8L291.4,5.5L291.4,6.7L291.1,7.1L289.3,7.9Z M0.0,2.9L6.8,5.0L14.1,7.8L13.9,9.5L15.7,10.2L15.1,8.2L22.6,8.6L28.1,11.2L25.3,12.4L20.8,12.7L20.7,15.4L19.6,16.0L17.0,15.9L14.9,14.9L11.2,14.1L10.5,12.9L7.7,12.4L4.6,12.8L3.1,11.8L3.7,10.8L0.3,11.5L1.6,12.8L0.0,13.9L1000.0,14.0L996.4,15.2L992.8,15.0L995.3,16.5L997.0,18.7L998.2,19.5L998.6,20.6L997.9,21.4L992.7,20.8L984.9,22.9L982.4,23.2L978.2,25.1L974.2,26.8L973.1,28.1L969.2,26.2L961.9,28.4L960.7,27.3L958.0,28.5L954.3,28.1L953.4,30.0L950.0,32.7L950.1,33.8L953.3,34.4L952.9,38.4L950.4,38.5L949.2,40.9L950.3,42.1L945.5,43.5L944.5,46.7L940.4,47.3L939.5,50.2L935.5,52.7L934.5,50.8L933.3,46.8L931.8,40.6L933.1,36.8L935.4,35.1L935.6,33.8L939.9,33.2L944.9,29.7L949.6,26.8L954.6,24.6L956.9,20.7L953.5,20.9L951.8,23.2L944.8,26.3L942.5,22.9L935.3,23.8L928.4,28.4L930.7,30.2L924.5,30.9L920.2,31.2L920.4,29.2L916.1,28.7L912.6,30.1L904.1,29.6L895.0,30.4L886.0,35.9L875.3,42.4L879.7,42.8L881.1,44.5L883.8,45.1L885.6,43.7L888.6,43.9L892.6,47.0L892.7,49.3L890.5,52.1L890.3,55.4L889.1,59.9L884.9,63.9L883.9,65.8L880.2,69.0L876.4,72.3L874.6,73.9L870.9,75.5L869.2,75.6L867.4,74.2L863.7,76.2L863.3,77.2L862.2,77.0L861.0,77.9L860.2,78.9L860.3,80.9L858.9,81.5L858.4,82.0L857.3,82.8L855.5,83.3L854.3,84.0L854.2,85.2L853.8,85.5L855.0,86.0L856.5,87.2L858.9,90.5L859.6,92.3L859.6,95.5L858.6,97.0L856.1,97.5L853.8,98.7L851.3,98.9L851.0,97.4L851.6,95.3L850.3,92.4L852.4,92.0L850.5,89.6L849.1,89.1L848.8,89.6L848.0,89.8L847.9,89.3L847.2,89.0L846.4,88.6L847.2,87.4L847.8,87.0L847.6,86.5L848.3,85.0L848.1,84.6L846.5,84.3L845.2,83.5L841.3,84.3L839.3,85.6L836.3,86.4L837.7,85.1L837.2,84.0L839.4,82.2L837.9,80.7L835.5,81.7L832.3,83.6L830.6,85.4L827.9,85.5L826.5,86.8L827.9,88.7L830.2,89.2L830.3,90.4L832.5,91.2L835.6,89.3L838.1,90.3L839.9,90.4L840.3,91.9L836.4,92.6L835.1,94.1L832.4,95.5L831.0,97.5L834.0,99.0L835.1,101.7L836.7,104.3L838.6,106.4L838.6,108.5L836.8,109.2L837.5,110.7L839.1,111.6L838.7,113.8L838.0,116.0L836.5,116.3L834.4,119.3L832.2,122.9L829.6,126.3L825.8,128.8L821.9,131.2L818.8,131.5L817.1,132.7L816.1,131.8L814.6,133.2L810.7,134.6L807.7,135.0L806.8,137.9L805.2,138.1L804.5,136.1L805.2,135.0L801.4,134.1L800.1,134.6L796.4,137.0L794.1,139.6L793.5,141.5L795.6,144.4L798.2,148.1L800.7,149.8L802.4,152.0L803.7,157.2L803.3,162.0L801.0,163.9L797.8,165.7L795.6,168.0L792.1,170.6L791.1,168.8L791.9,166.9L789.8,165.3L787.5,164.9L786.4,163.5L785.0,160.6L782.5,159.3L780.1,159.4L780.5,157.2L778.0,157.2L777.8,160.3L776.3,164.3L775.4,166.8L775.6,168.8L777.4,168.9L778.6,171.4L779.1,173.8L780.6,175.4L782.3,175.7L783.7,177.2L784.4,177.4L786.0,179.1L787.2,181.0L787.3,182.8L787.0,184.1L787.3,185.0L787.5,186.7L788.5,187.5L789.6,189.9L789.5,190.9L787.6,191.0L784.9,189.0L781.6,186.8L781.3,185.4L779.7,183.5L779.3,181.2L778.3,179.7L778.6,177.7L778.0,176.5L776.9,175.4L776.4,174.0L775.0,172.5L773.6,171.2L773.2,172.8L772.6,171.3L772.9,169.5L773.8,166.9L773.5,164.8L774.3,162.7L773.4,161.0L773.6,158.0L772.5,156.6L771.6,153.2L771.1,149.7L769.9,147.4L768.1,148.8L764.9,150.8L763.4,150.5L761.6,149.9L762.6,146.5L762.0,143.8L759.8,140.6L760.2,139.6L758.5,139.3L756.6,137.0L755.8,135.6L755.6,134.2L755.1,132.8L753.9,131.2L751.4,131.1L751.6,132.2L750.8,133.8L749.6,133.2L749.2,133.7L748.4,133.4L747.3,133.2L746.9,134.2L745.0,134.2L741.6,134.7L741.8,136.8L740.3,138.5L736.3,140.3L733.2,143.6L731.1,145.4L728.3,147.2L728.3,148.5L726.9,149.1L724.4,150.1L723.1,150.3L722.3,152.4L722.9,156.0L723.0,158.3L721.8,161.0L721.8,165.7L720.4,165.8L719.1,167.9L720.0,168.8L717.4,169.6L716.5,171.5L715.4,172.3L712.8,169.7L711.5,165.8L710.4,163.0L709.4,161.7L708.0,159.0L707.3,155.6L706.8,153.8L704.3,150.0L703.1,144.6L702.3,141.1L702.3,137.7L701.7,135.1L697.7,136.8L695.7,136.5L692.1,133.1L693.5,132.1L692.6,131.0L689.4,128.6L687.3,127.9L686.5,125.9L684.4,123.8L679.2,124.3L674.7,124.4L670.8,124.8L665.6,123.9L662.6,123.3L659.4,122.9L658.3,119.5L656.9,119.0L654.8,119.5L652.0,120.9L648.6,120.0L645.8,117.8L643.1,117.0L641.3,114.4L639.2,110.7L637.7,111.2L635.9,110.2L634.9,111.3L633.3,111.2L633.8,112.4L633.6,113.0L634.5,115.1L635.6,117.5L636.9,118.2L637.4,119.1L639.3,120.3L639.5,121.5L639.2,122.4L639.6,123.3L640.4,124.1L640.7,125.0L641.1,125.7L641.0,123.7L641.7,122.2L642.5,121.9L643.3,122.8L643.4,124.4L642.7,126.0L643.3,127.1L643.8,127.0L643.9,127.7L646.0,127.3L648.3,127.4L650.0,127.4L651.9,125.6L654.0,123.8L655.8,122.1L656.6,121.1L656.9,121.4L656.6,122.5L656.3,123.0L656.7,125.2L657.9,127.1L659.5,128.1L661.5,128.5L663.1,129.0L664.4,130.6L665.1,131.5L666.1,131.9L666.1,132.5L665.1,134.1L664.7,134.9L663.5,135.8L662.5,137.7L661.2,137.5L660.6,138.2L660.2,139.6L660.5,141.5L660.3,141.8L659.0,141.8L657.2,142.8L657.0,144.2L656.3,144.8L654.6,144.8L653.5,145.5L653.5,146.6L652.2,147.4L650.7,147.1L648.8,148.0L647.5,148.2L645.5,148.9L645.0,150.2L644.9,151.1L642.1,152.3L637.7,153.6L635.2,155.5L634.0,155.7L633.2,155.5L631.5,156.7L629.8,157.2L627.4,157.4L626.7,157.5L626.1,158.3L625.4,158.5L625.0,159.2L623.6,159.1L622.7,159.5L620.8,159.3L620.1,157.7L620.1,156.2L619.7,155.4L619.1,153.3L618.3,152.2L618.9,152.0L618.6,150.8L619.0,150.2L618.8,149.0L618.5,147.8L617.6,147.0L617.4,145.9L616.0,144.9L614.5,142.6L613.7,140.3L611.8,138.4L610.6,137.9L608.7,135.3L608.4,133.4L608.5,131.7L606.9,128.6L605.6,127.6L604.1,127.0L603.2,125.4L603.4,124.8L602.6,123.3L601.8,122.7L600.7,120.6L599.0,118.4L597.6,116.5L596.2,116.5L596.6,115.0L596.8,114.0L597.1,112.9L597.0,112.5L596.2,113.6L595.6,115.7L594.9,117.2L594.2,117.6L593.3,116.7L592.0,115.5L590.1,111.5L589.8,111.8L590.9,114.7L592.6,117.5L594.7,121.8L595.8,123.3L596.7,124.9L599.1,128.0L598.6,128.5L598.7,130.3L601.9,132.8L602.4,133.3L603.3,136.1L602.7,136.6L603.1,139.4L604.1,142.7L605.2,143.4L606.7,144.5L608.3,147.7L609.1,150.2L610.6,151.6L614.4,154.2L615.9,155.8L617.4,157.4L618.3,158.3L619.7,159.2L620.3,160.0L620.2,161.2L618.7,161.8L619.8,162.6L620.8,163.1L621.3,164.3L622.5,165.4L623.9,165.4L626.5,164.7L629.6,164.4L632.0,163.5L633.4,163.4L634.4,162.8L636.0,162.7L636.9,162.7L638.1,162.3L639.6,162.0L640.9,161.1L642.0,161.0L642.0,161.8L641.8,163.4L641.8,164.9L641.2,165.9L640.4,168.9L639.1,172.0L637.4,175.5L635.0,179.6L632.6,182.7L629.3,186.5L626.6,188.8L622.4,191.5L619.8,193.6L616.8,197.0L616.1,198.5L615.5,199.1L613.6,200.2L612.9,201.4L611.8,201.6L611.4,203.5L610.6,204.7L610.0,206.5L608.9,207.4L607.6,210.9L607.8,212.4L609.6,213.4L609.6,214.2L608.9,215.8L609.0,216.7L608.9,218.0L609.8,219.8L611.0,222.5L612.0,223.1L612.4,224.3L612.3,227.1L612.7,229.6L612.8,233.9L613.3,235.3L612.4,237.2L611.4,239.2L609.6,240.9L607.0,241.9L603.9,243.3L600.8,246.3L599.7,246.8L597.8,248.8L596.6,249.4L596.4,251.4L597.7,253.5L598.3,255.1L598.3,255.9L598.8,255.8L598.7,258.5L598.3,259.8L598.9,260.3L598.5,261.5L597.3,262.4L595.0,263.4L591.7,264.9L590.5,265.9L590.7,267.1L591.4,267.3L591.2,268.7L590.5,270.7L590.2,273.1L589.5,274.3L587.6,275.7L587.0,276.1L585.8,277.5L585.1,279.0L583.5,280.9L580.3,283.8L578.4,285.5L576.3,286.7L573.4,287.8L572.0,288.0L571.6,288.7L569.9,288.3L568.5,288.9L565.5,288.3L563.9,288.7L562.7,288.5L559.8,289.6L557.5,290.0L555.8,291.1L554.5,291.2L553.3,290.2L552.4,290.1L551.2,288.9L551.0,289.3L550.7,288.5L550.7,286.9L549.8,285.0L550.7,284.5L550.6,282.4L548.8,279.8L547.4,277.4L547.4,277.4L545.4,273.8L543.3,271.7L542.3,269.7L541.6,267.0L541.0,265.0L540.0,260.7L540.0,257.4L539.6,255.9L538.5,254.7L537.1,252.4L535.6,249.1L535.0,247.3L532.8,244.6L532.6,242.5L532.3,240.8L532.7,238.3L533.7,235.8L533.8,234.6L534.7,232.1L535.4,230.9L537.0,229.1L537.9,227.9L538.2,225.8L538.0,224.3L537.2,223.3L536.4,221.6L535.8,219.9L535.9,219.3L536.8,218.2L535.9,215.5L535.4,213.7L534.0,211.9L534.2,211.4L533.8,210.5L533.1,208.4L530.8,205.5L528.0,202.7L526.1,200.4L524.4,197.5L524.5,196.6L525.1,195.7L525.8,193.7L526.4,191.6L525.8,191.2L526.8,188.1L527.2,185.9L526.1,184.1L524.9,183.6L524.3,182.4L523.6,182.0L523.6,181.2L520.7,182.2L519.7,182.0L518.6,182.7L516.4,182.6L514.9,180.9L514.0,178.9L512.0,177.0L509.9,177.1L507.5,177.1L505.2,177.4L502.9,178.0L498.6,179.6L497.0,180.6L494.5,181.4L492.1,180.6L490.8,180.6L488.9,180.1L487.1,180.1L483.8,180.6L481.9,181.4L479.1,182.4L478.6,182.3L477.8,182.3L475.0,181.0L472.5,178.9L470.1,177.4L468.2,175.6L467.5,175.4L465.5,174.3L464.0,172.8L463.5,171.8L463.2,169.7L462.0,168.1L460.9,167.0L460.2,166.6L459.5,166.1L459.2,164.8L458.8,164.2L458.0,163.8L456.5,162.6L455.3,162.4L454.7,161.6L454.7,161.2L453.9,160.6L453.7,160.0L453.2,157.9L453.6,156.7L452.4,154.5L451.0,153.5L452.3,153.0L453.6,151.1L454.3,149.6L454.0,148.1L454.8,146.8L455.1,144.1L454.8,141.4L454.5,140.0L454.8,138.6L454.1,137.3L452.6,136.1L452.7,134.9L452.9,133.7L453.9,132.9L454.8,131.4L454.6,130.5L455.6,128.5L457.2,126.8L458.1,126.3L458.8,124.7L458.9,123.2L459.9,121.5L461.7,120.5L463.5,117.7L464.9,116.6L467.5,116.3L469.7,114.4L471.1,113.6L473.4,111.3L472.7,107.8L473.8,105.5L474.2,104.0L476.0,102.1L478.7,100.8L480.8,99.7L482.7,96.8L483.5,95.1L485.6,95.1L487.2,96.3L489.9,96.1L492.8,96.7L494.0,96.8L496.6,95.2L499.6,94.8L501.4,93.6L504.1,92.8L508.8,92.3L513.4,92.0L514.8,92.5L517.4,91.4L520.4,91.3L521.5,92.0L523.4,91.8L526.4,90.7L528.4,91.0L528.3,92.4L530.6,91.4L530.8,91.9L529.4,93.3L529.4,94.6L530.4,95.3L530.0,97.7L528.2,99.1L528.7,100.6L530.2,100.6L530.9,102.0L531.9,102.4L535.2,103.4L536.3,103.1L538.7,103.6L542.3,104.8L543.6,107.3L546.1,107.8L550.1,109.0L553.0,110.4L554.4,109.7L555.7,108.4L555.1,106.2L555.9,104.9L557.9,103.6L559.8,103.2L563.6,103.8L564.5,105.0L565.6,105.0L566.5,105.5L569.2,105.8L569.9,106.8L573.6,106.7L576.3,107.4L579.0,108.3L580.3,108.7L582.5,107.8L583.6,107.0L586.0,106.8L588.0,107.1L588.8,108.5L589.4,107.6L591.6,108.3L593.8,108.4L595.2,107.7L596.0,106.8L595.8,106.7L596.5,105.4L597.1,103.3L597.5,102.6L597.6,102.5L598.6,100.3L599.9,98.3L600.0,98.2L599.7,96.1L600.4,94.9L599.4,93.7L600.4,92.6L598.8,92.9L596.4,92.2L594.5,93.8L590.3,94.1L588.1,92.7L585.1,92.6L584.4,93.7L582.5,94.0L579.8,92.6L576.8,92.6L575.1,89.9L573.1,88.3L574.5,86.2L572.7,84.8L575.8,82.2L580.1,82.1L581.2,79.9L586.5,80.3L589.9,78.5L593.1,77.7L597.7,77.7L602.5,79.6L606.5,80.7L609.8,80.3L612.1,80.5L615.4,79.1L615.8,77.9L615.1,76.0L613.5,75.0L612.0,74.6L611.0,73.8L607.4,71.4L604.3,70.4L601.9,68.8L603.9,68.3L606.2,66.0L604.6,64.9L608.7,63.8L608.7,63.2L606.2,63.6L604.0,63.8L602.1,64.7L599.5,64.9L597.1,65.9L597.3,67.6L598.6,68.3L601.5,68.1L600.9,69.1L597.9,69.6L594.1,71.2L592.6,70.7L593.2,69.3L590.1,68.5L590.6,68.0L593.3,67.1L592.5,66.4L588.2,65.7L588.0,64.7L585.4,65.0L584.4,66.6L582.2,68.6L582.3,69.3L580.9,69.9L580.1,69.7L579.3,73.0L577.9,74.2L576.9,76.2L577.8,77.8L578.1,78.8L580.5,79.7L580.0,80.4L576.7,80.6L575.5,81.4L573.2,82.9L572.3,81.6L572.4,81.0L570.7,81.0L569.2,80.7L565.9,81.4L567.8,83.0L566.4,83.4L564.8,83.4L563.4,82.0L562.9,82.6L563.5,84.3L564.9,85.6L563.8,86.2L565.4,87.5L566.7,88.3L566.8,89.8L564.2,89.1L565.0,90.5L563.3,90.8L564.3,93.3L562.5,93.3L560.2,92.1L559.2,89.9L558.7,88.0L557.6,86.7L556.2,85.2L556.0,84.4L555.5,84.2L555.4,83.6L553.9,82.6L553.7,81.3L553.9,79.4L554.3,78.6L553.8,78.1L553.2,77.9L552.4,77.0L551.2,76.4L548.6,75.4L547.0,74.4L544.5,73.6L542.2,71.5L542.7,71.3L541.4,70.2L541.4,69.2L539.6,68.8L538.8,70.0L537.9,69.1L538.0,68.1L538.1,68.1L538.7,67.8L536.5,67.4L534.2,68.4L534.4,69.8L534.1,70.6L535.0,72.0L537.6,73.4L539.0,75.7L542.1,77.9L544.2,77.9L544.9,78.5L544.1,79.1L546.6,80.1L548.7,80.9L551.0,82.3L551.3,82.9L550.8,83.9L549.3,82.6L546.9,82.1L545.7,83.9L547.7,84.9L547.4,86.4L546.2,86.5L544.7,88.9L543.6,89.1L543.6,88.3L544.1,86.8L544.7,86.2L543.7,84.6L542.8,83.2L541.7,82.9L540.8,81.7L539.1,81.1L537.9,80.0L535.8,79.9L533.6,78.6L531.1,76.8L529.2,75.2L528.3,72.4L527.0,72.1L524.7,71.2L523.4,71.6L521.8,72.9L520.7,73.1L518.1,74.6L512.7,73.9L508.6,74.8L508.3,76.5L508.4,78.1L505.8,79.9L502.3,80.5L502.0,81.5L500.3,83.0L499.2,85.2L500.3,86.8L498.7,88.1L498.1,89.9L496.0,90.4L494.0,92.6L490.5,92.6L487.9,92.6L486.1,93.5L485.1,94.6L483.7,94.4L482.7,93.4L481.9,91.8L479.3,91.4L478.2,92.1L476.7,91.7L475.3,92.0L475.7,89.9L475.4,88.2L474.2,87.9L473.5,86.8L473.8,85.0L474.9,84.0L475.1,82.9L475.6,81.2L475.6,80.0L475.0,79.0L474.9,78.1L475.0,76.1L473.9,74.9L477.8,72.9L481.2,73.4L485.0,73.4L487.9,73.9L490.2,73.7L494.7,73.8L496.2,72.2L496.7,66.6L493.8,63.7L491.8,62.3L487.5,61.2L487.2,59.2L490.8,58.6L495.5,59.3L494.6,56.2L497.3,57.4L503.7,55.2L504.6,52.9L507.0,52.4L509.2,51.8L510.6,51.1L513.1,47.0L516.9,45.8L519.2,45.9L519.7,45.3L522.0,45.1L522.6,45.8L524.4,44.4L523.8,43.3L523.7,41.8L522.6,40.2L522.5,37.4L522.9,36.6L523.7,35.8L526.2,35.6L527.2,34.9L529.4,34.1L529.3,35.5L528.5,36.4L528.8,37.2L530.3,37.6L529.6,38.7L528.8,38.4L526.8,40.4L527.6,41.7L527.6,42.8L530.4,43.4L530.4,44.4L533.2,43.9L534.8,43.1L537.9,44.2L539.2,45.1L541.1,44.3L545.5,43.0L549.0,42.1L551.7,42.5L551.9,43.2L554.6,43.3L555.2,42.0L559.1,41.1L558.5,38.8L558.6,36.7L559.9,35.0L562.6,34.0L564.8,36.1L567.0,36.0L567.5,33.9L567.9,32.3L566.8,32.6L565.1,31.6L564.8,30.0L568.3,29.3L571.8,28.9L574.9,29.3L577.7,29.2L580.9,27.7L578.0,26.4L572.9,26.6L568.0,27.6L563.5,28.2L561.9,26.7L559.2,25.8L559.8,23.0L558.5,20.5L559.8,18.9L562.3,17.2L568.7,14.2L570.5,13.6L570.3,12.4L566.4,11.1L561.6,11.9L558.9,13.8L559.4,15.5L554.9,17.7L549.6,20.1L547.6,24.1L549.5,26.0L552.2,27.6L549.6,30.7L546.7,31.3L545.7,36.0L544.1,38.6L540.7,38.3L539.2,40.5L536.0,40.7L535.1,38.0L532.7,34.9L530.6,31.0L528.8,29.2L523.3,32.5L519.6,33.1L515.7,31.7L514.7,28.7L513.9,22.3L516.4,20.5L523.8,18.2L529.2,15.3L534.3,11.4L541.0,6.1L545.7,4.0L553.3,0.5L559.4,0.0L564.0,0.0L568.2,0.0L573.2,0.0L578.2,0.0L586.9,0.0L583.3,0.0L586.4,1.2L589.3,0.3L593.8,1.9L601.4,2.6L611.9,5.7L614.1,7.1L614.2,8.9L611.2,10.4L606.6,11.1L594.2,9.0L592.2,9.4L596.7,11.4L597.1,15.5L600.6,16.4L602.8,17.1L603.2,15.7L601.4,14.5L603.3,13.5L610.0,15.2L612.3,14.5L610.5,12.5L616.9,9.8L619.5,9.9L622.1,10.9L623.7,9.0L621.4,7.4L622.7,5.7L620.7,4.0L628.5,4.9L630.1,6.4L626.5,6.8L626.6,8.3L628.7,9.3L633.0,8.7L633.7,6.9L639.5,5.6L649.2,3.2L651.3,3.3L648.6,5.0L652.0,5.3L654.0,4.3L659.2,4.3L663.3,3.1L666.5,4.8L669.7,2.9L666.7,1.3L668.2,0.4L676.4,1.3L680.2,2.1L690.3,5.3L692.2,3.8L689.3,2.4L689.3,1.8L685.9,1.5L686.8,0.2L685.3,0.0L685.3,0.0L690.4,0.0L692.2,0.0L694.3,0.0L701.6,0.0L702.2,0.0L699.6,0.0L701.3,0.0L702.2,0.0L701.6,2.7L704.6,4.4L703.4,6.3L698.0,10.2L701.2,10.6L702.3,9.6L705.3,8.9L706.1,7.5L708.5,6.2L706.9,4.6L708.2,2.8L705.1,2.6L704.4,1.0L706.7,0.0L703.1,0.0L708.0,0.0L707.4,0.0L708.8,0.0L710.2,0.0L709.1,0.0L712.1,0.0L710.8,0.0L715.5,0.0L721.3,0.0L726.4,0.0L723.9,0.0L723.6,0.0L728.5,0.0L735.2,0.0L741.2,0.0L738.9,0.0L742.1,0.0L745.3,0.0L750.7,0.0L758.1,0.0L759.0,0.0L766.3,0.0L768.5,0.0L774.8,0.0L779.9,0.0L780.7,0.0L783.3,0.0L789.9,0.0L794.6,0.0L790.8,0.0L797.1,0.0L797.9,0.0L800.4,0.0L808.5,0.0L814.8,0.0L817.0,0.0L816.3,0.0L813.3,0.0L806.0,0.0L803.9,0.0L807.3,0.0L811.4,0.0L813.9,0.0L815.4,0.0L816.6,0.0L821.0,0.0L829.9,0.0L830.6,0.0L842.2,0.0L842.4,0.0L848.3,0.0L852.7,0.0L857.2,0.0L858.5,0.0L856.8,0.0L860.3,0.0L864.7,0.0L867.4,0.0L871.8,0.0L876.6,0.0L881.9,0.0L884.0,0.0L888.5,0.0L886.5,0.0L890.2,0.0L915.3,0.0L917.6,0.0L924.9,0.0L936.1,0.0L941.7,0.0L944.0,0.0L943.6,0.8L947.1,1.6L950.8,1.0L955.7,0.9L960.9,1.5L966.2,1.2L971.0,3.6L974.5,2.7L972.2,1.0L973.5,0.0L982.3,0.5L988.1,0.3L996.1,1.7L0.0,2.9Z M636.4,79.8L637.8,81.7L639.1,81.9L640.0,82.6L637.7,82.8L637.2,85.0L636.7,86.0L635.7,86.6L635.8,88.0L636.7,90.0L639.3,90.6L641.2,92.0L645.2,92.5L649.5,91.8L649.8,91.1L649.3,89.2L649.7,86.2L647.5,85.3L648.2,83.4L646.4,83.2L647.0,80.9L649.6,81.6L652.0,80.7L650.0,79.0L649.2,77.4L647.0,78.1L646.7,80.2L645.8,78.4L645.7,77.7L646.4,76.5L645.8,75.6L642.6,74.6L641.4,72.1L639.8,71.4L639.7,70.5L642.4,70.8L642.5,68.8L644.9,68.3L647.3,68.7L647.8,66.0L647.3,64.3L644.6,64.4L642.2,63.8L639.0,65.0L636.4,65.6L635.1,67.2L632.4,67.7L629.7,70.5L632.2,73.2L631.9,75.0L635.0,78.3L636.4,79.8Z M234.3,2.5L232.6,3.5L228.8,2.6L226.6,2.9L222.8,1.7L225.2,0.8L227.2,0.0L230.1,0.4L231.8,0.9L232.6,1.4L234.3,2.5Z M0.0,0.0L1000.0,0.0L996.9,0.0L996.5,0.0L0.0,0.0Z M0.0,0.0L0.4,0.0L2.7,0.0L6.7,0.0L6.5,0.0L3.6,0.0L0.0,0.0L0.0,0.0Z M248.5,1.4L248.5,4.2L252.2,2.1L255.5,3.8L254.7,5.9L257.4,7.8L260.3,5.8L262.3,3.4L262.4,0.3L266.4,0.5L270.5,1.0L274.2,2.3L274.4,3.7L272.3,5.2L274.3,6.7L273.9,8.0L268.5,10.0L264.6,10.4L261.8,9.6L260.9,11.0L258.2,13.3L257.4,14.5L254.2,16.4L250.2,16.6L248.0,17.7L247.9,19.6L244.6,19.9L241.2,22.2L238.2,25.3L237.1,27.5L237.0,30.7L241.1,31.2L242.3,33.8L243.6,35.9L247.5,35.3L252.7,36.5L255.4,37.6L257.4,38.9L260.9,39.7L263.9,40.8L268.4,41.0L271.5,41.3L271.0,43.7L271.9,46.5L273.9,49.6L278.0,52.2L280.2,51.3L281.7,48.4L280.2,44.0L278.3,42.6L282.7,41.3L285.8,39.3L287.4,37.4L287.2,35.5L285.3,33.2L281.9,31.1L285.2,28.2L284.0,25.7L283.0,21.3L285.0,20.7L289.7,21.4L292.6,21.7L294.9,21.0L297.5,21.9L300.9,23.5L301.7,24.6L306.7,24.8L306.6,27.2L307.5,30.7L310.1,31.1L312.1,32.7L316.1,31.2L318.8,28.1L320.6,26.8L322.8,29.3L326.4,32.9L329.5,36.2L328.3,37.9L332.0,39.5L334.5,41.1L339.0,41.8L340.7,42.7L341.8,45.1L344.0,45.4L345.1,46.5L345.3,49.6L343.3,50.6L341.3,51.6L336.7,52.6L333.2,54.9L328.5,55.3L322.6,54.7L318.4,54.7L315.6,54.9L313.2,56.9L309.7,58.1L305.7,61.8L302.5,64.4L304.8,63.9L309.3,60.3L315.1,58.0L319.3,57.7L321.7,59.0L319.1,60.9L320.0,63.9L320.9,66.0L324.5,67.4L329.1,67.0L331.9,63.9L332.1,65.9L333.9,66.9L330.4,68.7L324.3,70.4L321.5,71.5L318.4,73.5L316.3,73.3L316.2,70.9L321.0,68.6L316.6,68.7L313.5,69.1L314.0,70.0L311.0,71.3L308.2,72.3L305.2,73.1L303.6,74.9L303.3,75.4L303.3,76.8L304.2,78.3L305.3,78.4L305.0,77.4L305.9,78.0L305.7,78.8L303.8,79.2L302.4,79.2L300.4,79.7L299.2,79.8L297.6,79.9L295.3,80.7L299.3,80.2L300.2,80.7L296.3,81.6L294.5,81.6L294.6,81.2L293.7,82.0L294.6,82.1L294.0,84.1L291.9,86.3L291.7,85.6L291.1,85.4L290.2,84.7L290.8,86.2L291.4,86.7L291.5,87.8L290.6,88.8L289.1,91.1L288.8,91.0L289.7,89.1L288.2,88.0L287.9,85.7L287.4,86.9L288.0,88.7L286.2,88.2L288.1,89.1L288.2,91.8L289.0,92.0L289.3,92.9L289.6,95.7L287.9,97.8L285.0,98.6L283.2,100.2L281.8,100.4L280.4,101.4L280.0,102.3L276.9,104.1L275.4,105.5L274.1,107.1L273.6,109.1L274.1,111.0L275.1,113.4L276.3,115.4L276.3,116.6L277.6,119.8L277.5,121.6L277.4,122.7L276.7,124.4L275.9,124.8L274.5,124.4L274.1,123.2L273.0,122.6L271.6,120.2L270.3,118.1L269.8,117.0L270.4,115.1L269.6,113.6L267.5,111.3L266.4,110.9L263.6,112.1L263.1,112.0L261.7,110.7L260.0,110.0L256.9,110.4L254.4,110.0L252.3,110.2L251.1,110.6L251.6,111.4L251.6,112.5L252.2,113.1L251.6,113.4L250.6,113.0L249.6,113.6L247.6,113.5L245.5,112.0L243.1,112.4L241.0,111.7L239.3,111.9L237.0,112.6L234.4,114.6L231.7,115.8L230.2,117.1L229.5,118.4L229.5,120.3L229.6,121.6L230.2,122.6L230.2,122.6L230.2,122.6L229.1,125.0L228.6,127.0L228.4,130.7L228.1,132.1L228.6,133.6L229.5,135.0L230.0,137.1L231.9,139.2L232.5,140.8L233.6,142.1L236.6,142.9L237.7,144.0L240.1,143.3L242.3,143.0L244.3,142.5L246.1,142.0L247.9,140.9L248.5,139.3L248.7,136.9L249.2,136.1L251.1,135.4L254.0,134.7L256.5,134.8L258.2,134.6L258.9,135.2L258.8,136.5L257.3,138.2L256.6,139.9L257.1,140.4L256.7,141.6L256.0,143.7L255.3,143.0L254.7,143.1L254.7,143.5L255.3,143.5L255.2,144.2L254.8,145.4L255.0,145.9L254.7,146.9L254.9,147.1L254.6,148.5L254.0,149.3L253.5,149.4L253.0,150.3L253.9,150.8L254.1,150.4L254.9,150.8L255.2,150.9L255.8,150.4L256.6,150.3L256.9,150.6L257.3,150.4L258.6,150.7L259.9,150.6L260.8,150.3L261.1,150.0L262.0,150.1L262.7,150.3L263.4,150.3L263.9,150.0L265.2,150.4L265.6,150.5L266.5,151.0L267.3,151.6L268.3,152.0L269.0,152.8L268.8,153.1L268.7,153.7L268.9,154.7L268.3,155.6L268.0,156.8L267.9,158.0L268.1,158.7L268.1,159.9L267.7,160.2L267.4,161.4L267.6,162.1L267.1,162.9L267.2,163.6L267.6,164.1L268.3,165.6L269.4,166.7L270.7,167.9L271.7,168.9L271.6,169.5L272.8,169.6L273.0,169.4L273.8,170.0L275.1,169.8L276.3,169.1L278.0,168.6L279.0,167.7L280.5,167.9L280.4,168.2L281.9,168.3L283.2,168.8L284.1,169.6L285.1,170.4L286.6,170.4L288.7,168.5L289.8,168.2L289.8,167.3L290.3,164.9L291.9,163.7L293.7,163.6L293.9,163.0L296.1,163.3L298.3,161.9L299.3,161.2L300.7,159.9L301.7,160.1L302.4,160.8L301.9,161.7L301.8,162.4L300.1,162.7L301.1,164.0L301.0,165.4L299.8,167.0L300.8,169.2L302.0,169.1L302.7,167.1L301.8,166.1L301.7,164.0L305.1,162.8L304.7,161.5L305.7,160.7L306.7,162.6L308.7,162.7L310.5,164.2L310.6,165.1L313.1,165.2L316.0,164.9L317.6,166.1L319.8,166.4L321.3,165.6L321.3,164.9L324.8,164.7L328.1,164.7L325.8,165.5L326.7,166.8L328.9,167.0L331.0,168.4L331.5,170.6L332.9,170.5L334.0,171.2L335.8,172.2L337.5,174.0L337.6,175.5L338.7,175.5L340.2,176.9L341.3,177.9L344.6,178.4L344.9,177.9L347.1,177.7L350.1,178.5L351.1,178.8L353.1,179.4L356.0,181.8L356.5,182.9L357.5,182.8L358.1,184.3L359.7,189.2L361.2,189.6L361.3,191.5L359.2,193.8L360.0,194.7L364.9,195.1L365.0,197.9L367.2,196.1L370.6,197.1L375.3,198.8L376.6,200.4L376.2,201.9L379.4,201.1L384.8,202.5L388.9,202.4L393.1,204.7L396.6,207.8L398.7,208.6L401.1,208.7L402.1,209.6L403.1,213.2L403.5,214.8L402.4,219.4L401.0,221.2L397.1,225.1L395.3,228.3L393.3,230.7L392.6,230.7L391.8,232.8L392.0,238.0L391.2,242.2L390.9,244.1L390.0,245.2L389.6,248.9L386.7,252.5L386.3,255.4L384.0,256.6L383.4,258.3L380.3,258.2L376.0,259.3L374.0,260.5L370.9,261.4L367.6,263.6L365.3,266.3L364.9,268.4L365.3,269.9L364.8,272.7L364.2,274.1L362.3,275.6L359.2,280.5L356.7,282.7L354.8,284.0L353.6,286.7L351.7,288.2L350.5,290.0L347.4,291.5L345.4,291.0L343.8,291.3L341.3,290.1L339.4,290.2L337.7,288.6L337.5,290.1L341.0,292.5L340.7,294.4L342.4,295.6L342.3,297.0L339.6,300.5L335.5,302.0L329.9,302.6L326.8,302.3L327.4,304.0L326.9,306.0L327.4,307.4L325.7,308.4L322.9,308.8L320.2,307.8L319.1,308.5L319.5,311.3L321.4,312.1L322.9,311.2L323.7,312.7L321.2,313.5L318.9,315.3L318.5,318.1L317.9,319.5L315.3,319.6L313.1,321.0L312.3,323.1L315.0,325.1L317.7,325.7L316.7,328.2L313.4,329.7L311.6,333.0L309.1,334.1L308.0,335.4L308.8,338.3L310.7,339.9L309.5,339.7L307.1,339.7L305.7,340.4L303.2,341.4L302.8,344.0L301.6,344.0L298.5,343.1L295.3,341.2L291.8,339.6L290.9,337.9L291.7,336.2L290.3,334.4L290.0,329.7L291.2,327.0L294.1,324.8L289.9,324.0L292.5,321.6L293.5,317.0L296.6,317.9L298.0,312.2L296.1,311.4L295.3,314.9L293.5,314.5L294.4,310.5L295.3,305.4L296.6,303.5L295.8,300.8L295.6,297.7L296.8,297.6L298.5,293.1L300.4,288.6L301.6,284.5L300.9,280.3L301.8,278.0L301.4,274.6L303.0,271.2L303.5,265.9L304.4,260.1L305.3,253.9L305.1,249.3L304.5,245.4L301.7,243.8L301.5,242.7L296.0,239.9L291.0,236.9L288.9,235.1L287.7,232.8L288.2,232.0L285.8,228.4L283.1,223.3L280.5,217.7L279.3,216.5L278.4,214.4L276.3,212.6L274.3,211.5L275.2,210.2L273.9,207.6L274.7,205.7L276.9,203.9L278.4,201.8L277.8,200.6L276.8,201.9L275.1,200.7L275.7,199.9L275.2,197.4L276.2,197.0L276.7,195.2L277.7,193.4L277.5,192.3L279.1,191.7L281.0,190.6L280.6,189.7L281.6,189.5L281.5,188.1L282.1,187.1L283.5,187.0L284.7,185.2L285.8,183.8L284.7,183.1L285.3,181.5L284.6,178.9L285.2,178.2L284.8,175.9L283.7,174.4L282.7,173.6L282.1,172.1L282.8,171.3L282.1,171.1L281.6,170.2L280.2,169.5L279.0,169.6L278.4,170.6L277.3,171.3L276.7,171.4L276.4,172.0L277.8,173.5L277.0,173.8L276.6,174.2L275.3,174.4L274.8,172.7L274.5,173.2L273.6,173.0L273.0,171.9L271.9,171.7L271.1,171.4L269.9,171.4L269.9,172.0L269.5,171.6L268.0,171.0L267.5,170.4L267.8,169.9L267.7,169.3L266.9,168.6L265.8,168.1L264.9,167.7L264.7,166.9L264.0,166.4L264.1,167.2L263.6,167.9L262.9,167.1L262.1,166.9L261.7,166.3L261.7,165.4L262.1,164.6L261.3,164.2L261.9,163.6L261.0,162.8L259.7,161.6L259.0,160.7L257.9,159.8L256.5,158.6L256.8,158.2L257.2,158.6L257.5,158.4L257.0,157.5L256.1,157.3L255.8,157.9L254.2,157.9L253.2,157.6L252.1,157.1L250.5,156.9L249.7,156.3L248.3,155.8L246.6,155.8L245.3,155.2L243.8,154.1L240.7,151.1L239.2,150.2L237.0,149.4L235.4,149.6L233.2,150.7L231.8,151.0L229.8,150.2L227.7,149.7L225.1,148.4L223.1,148.0L219.9,146.7L217.6,145.4L216.9,144.7L215.3,144.5L212.5,143.6L211.3,142.4L208.4,140.8L207.0,139.0L206.3,137.7L207.2,137.4L206.9,136.6L207.6,135.9L207.6,134.9L206.7,133.7L206.4,132.6L205.5,131.2L203.0,128.4L200.2,126.3L198.9,124.5L196.5,123.4L196.0,122.7L196.4,121.0L195.0,120.3L193.4,119.0L192.7,117.1L191.2,116.8L189.6,115.4L188.3,114.0L188.1,113.1L186.6,111.1L185.7,108.9L185.7,107.9L183.7,106.8L182.8,106.9L181.2,106.1L180.7,107.2L181.2,108.6L181.5,110.7L182.4,111.8L184.5,113.7L184.9,114.4L185.4,114.6L185.7,115.5L186.2,115.5L186.8,117.3L187.6,118.0L188.2,119.0L190.0,120.4L190.9,123.0L191.7,124.2L192.5,125.5L192.6,126.9L194.0,127.0L195.1,128.3L196.1,129.5L196.0,130.0L194.9,131.1L194.4,131.0L193.6,129.4L191.8,127.8L189.8,126.4L188.4,125.7L188.5,123.7L188.1,122.2L186.7,121.3L184.8,120.1L184.5,120.4L183.8,119.7L182.0,119.0L180.4,117.4L180.6,117.2L181.8,117.4L182.8,116.3L182.9,115.1L180.7,113.1L179.1,112.3L178.1,110.6L177.1,108.8L175.8,106.6L174.6,104.1L174.2,102.6L172.4,101.1L171.1,100.7L170.8,99.9L169.2,99.8L168.2,99.0L165.6,98.8L164.9,98.3L164.6,96.8L161.9,94.0L159.6,90.1L159.7,89.5L158.5,88.6L156.3,86.2L155.9,84.0L154.5,82.5L155.1,80.2L155.0,77.8L154.1,75.6L155.2,73.0L155.8,68.0L155.3,64.3L154.5,61.9L153.7,60.6L154.0,60.1L158.0,61.0L159.5,63.6L160.2,62.9L159.7,60.6L158.8,58.3L158.4,58.3L153.0,55.6L151.0,54.4L146.0,53.2L144.5,50.8L144.9,49.1L141.3,47.9L140.8,45.7L137.5,43.6L137.4,42.2L135.9,41.2L133.4,40.3L132.6,37.9L129.1,35.6L127.6,33.0L124.9,32.8L120.5,32.7L117.2,31.9L111.5,29.1L108.8,28.5L104.0,27.5L100.1,27.8L94.7,26.5L91.4,25.3L88.3,25.9L88.8,27.8L87.3,28.0L84.1,28.6L81.6,29.5L78.6,30.1L78.2,28.5L79.4,25.8L82.4,24.9L81.6,24.2L78.1,25.8L76.2,27.6L72.2,29.6L74.2,30.9L71.6,32.9L68.6,34.1L65.8,34.9L65.1,36.2L60.8,37.6L59.9,38.9L56.7,40.1L54.8,39.9L52.2,40.7L49.3,41.6L47.0,42.5L42.3,43.3L41.8,42.9L44.9,41.6L47.6,40.7L50.5,39.2L54.0,38.9L55.4,37.7L59.2,36.1L59.8,35.5L61.9,34.5L62.4,32.4L63.8,30.8L60.6,31.6L59.7,31.1L58.2,32.2L56.4,30.7L55.6,31.7L54.6,30.4L51.8,31.5L50.1,31.5L49.9,29.8L50.4,28.8L48.6,27.8L45.0,28.3L42.6,27.0L40.7,26.4L40.7,24.8L38.6,23.6L39.6,22.0L41.9,20.5L42.9,19.0L45.1,18.8L47.0,19.3L49.3,17.9L51.3,18.2L53.4,17.3L52.9,16.0L51.3,15.5L53.4,14.5L51.7,14.5L48.7,15.1L47.9,15.7L45.7,15.1L41.8,15.4L37.7,14.8L36.5,13.6L33.0,12.0L36.9,10.9L43.1,9.5L45.4,9.5L45.0,10.9L50.9,10.8L48.6,9.1L45.2,8.0L43.3,6.6L40.6,5.4L36.8,4.6L38.3,3.1L43.3,3.0L46.8,1.7L47.4,0.4L50.3,0.0L53.0,0.0L58.2,0.0L60.8,0.0L65.1,0.0L69.3,0.0L71.3,0.0L72.5,0.0L77.2,0.0L77.0,0.0L81.3,0.0L84.1,0.0L90.0,0.0L95.3,0.0L97.4,0.0L101.1,0.0L105.4,0.4L108.4,0.8L113.6,1.5L117.9,2.8L120.8,3.1L123.3,1.9L126.6,1.0L130.8,1.4L134.9,0.2L139.5,0.0L141.4,0.6L143.4,0.0L144.1,0.0L146.0,0.0L150.7,1.4L154.4,0.0L154.8,1.7L158.2,1.2L159.2,0.4L162.6,0.6L166.8,1.7L173.3,2.7L177.2,3.2L179.9,3.0L183.6,4.4L179.7,5.8L184.7,6.4L192.2,6.1L194.6,5.6L197.6,7.3L200.6,5.9L197.7,4.7L199.5,3.7L202.9,3.6L205.1,3.3L207.4,4.0L210.2,5.5L213.3,5.3L218.2,6.5L222.5,6.1L226.5,6.2L226.2,4.4L228.7,4.0L233.0,4.9L233.0,7.5L234.8,5.3L237.0,5.4L238.2,2.6L235.3,0.9L232.0,0.0L232.2,0.0L235.5,0.0L239.2,0.0L242.0,0.0L245.8,0.0L243.3,0.8L248.5,1.4Z M182.9,0.0L181.5,0.0L187.7,0.0L191.5,0.0L194.7,0.0L197.2,0.0L199.5,0.0L200.9,0.0L198.9,0.0L201.3,0.0L204.1,0.0L207.2,0.0L209.0,0.0L209.8,0.0L214.5,0.0L219.5,0.0L219.2,1.2L214.6,1.4L216.4,2.4L215.5,3.5L210.4,3.0L205.7,2.3L202.4,2.4L197.2,3.4L189.0,3.9L185.2,4.1L183.7,2.8L179.9,2.0L177.5,2.3L174.1,0.1L175.9,0.0L180.2,0.0L184.1,0.0L187.7,0.0L182.4,0.0L176.4,0.0L172.5,0.0L171.0,0.0L177.5,0.0L173.2,0.0L168.3,0.0L170.7,0.0L172.6,0.0L180.0,0.0L182.9,0.0Z M209.7,0.0L207.3,0.0L202.9,0.0L203.9,0.0L207.6,0.0L209.7,0.0Z M287.9,0.0L288.2,0.0L285.2,0.0L282.2,0.0L279.2,0.0L278.4,0.0L275.3,0.0L275.5,0.0L276.8,0.0L283.2,0.0L287.9,0.0Z M259.6,0.0L261.7,0.0L264.3,0.0L271.3,0.0L276.1,0.0L275.7,0.0L281.2,0.0L283.8,0.0L290.0,0.0L293.8,0.0L294.2,0.0L299.3,0.0L302.2,0.0L308.9,0.0L311.3,0.0L314.0,2.3L308.9,3.6L315.4,5.4L319.8,6.0L323.8,8.5L328.2,8.7L327.3,10.7L322.5,13.9L319.0,12.7L314.7,10.0L311.1,10.4L310.7,12.0L313.6,13.6L317.4,14.9L318.6,15.6L320.4,18.4L319.4,20.3L315.9,19.6L308.9,17.4L312.9,19.8L315.8,21.4L316.2,22.4L308.7,21.3L302.7,19.7L299.3,18.3L300.3,17.6L296.2,16.1L292.1,14.8L292.2,15.6L284.1,16.0L281.8,15.1L283.6,13.0L288.8,13.0L294.6,12.6L293.6,11.6L294.6,10.3L298.2,7.5L297.4,6.3L296.4,5.4L292.1,4.0L286.5,3.1L288.3,2.4L285.3,0.6L282.9,0.5L280.7,0.0L279.2,0.4L274.2,0.7L264.0,0.1L258.2,0.0L253.7,0.0L251.4,0.0L254.3,0.0L250.3,0.0L249.4,0.0L251.6,0.0L254.4,0.0L261.6,0.0L259.6,0.0Z M221.2,0.0L224.5,0.0L229.5,0.0L230.2,0.0L227.6,0.0L231.8,0.0L231.3,0.0L226.8,0.0L224.1,0.0L222.2,0.0L215.3,0.0L215.3,0.0L221.0,0.0L217.9,0.0L221.2,0.0Z M898.9,0.0L894.7,0.0L889.0,0.0L888.5,0.0L891.1,0.0L894.6,0.0L898.6,0.0L898.9,0.0Z M241.1,0.0L238.1,0.0L235.0,0.0L233.2,0.0L233.3,0.0L234.7,0.0L237.5,0.0L243.3,0.0L248.6,0.0L244.4,0.0L241.1,0.0Z M165.4,0.0L158.1,0.0L156.6,0.0L150.2,0.0L151.1,0.0L153.3,0.0L155.7,0.0L153.0,0.0L162.4,0.0L166.4,0.0L173.5,0.0L176.2,0.0L179.1,0.0L175.6,0.0L168.8,0.0L165.4,0.0L165.4,0.0Z M918.7,0.0L915.5,0.0L911.0,0.0L905.9,0.0L906.5,0.0L911.7,0.0L918.7,0.0Z M240.0,0.0L238.5,0.0L234.4,0.0L231.1,0.0L232.5,0.0L236.5,0.0L239.0,0.0L240.0,0.0Z M903.0,0.0L900.8,0.0L890.6,0.0L886.0,0.0L880.5,0.0L882.0,0.0L885.6,0.0L893.0,0.0L903.0,0.0Z M226.4,0.0L228.5,0.0L228.6,0.0L227.3,0.0L222.8,0.0L219.8,0.0L219.8,0.0L215.3,0.0L215.1,0.0L218.1,0.0L222.3,0.0L226.2,0.0L226.4,0.0Z M199.4,0.0L200.5,0.0L203.0,0.0L205.9,0.0L206.4,0.0L204.7,0.0L195.3,0.0L188.3,0.0L184.0,0.0L183.7,0.0L189.5,0.0L176.9,0.0L173.0,0.0L176.8,0.0L179.4,0.0L187.3,0.0L192.2,0.0L197.0,0.0L193.1,0.0L195.6,0.0L198.5,0.0L199.4,0.0Z M659.8,0.0L658.2,0.0L649.1,0.0L648.4,0.0L643.3,0.0L642.9,0.0L645.8,0.0L645.7,0.0L651.2,0.0L648.6,0.0L655.3,0.0L654.5,0.0L660.7,0.0L669.9,0.0L679.2,0.0L683.9,0.0L689.3,0.0L691.3,0.0L689.4,0.0L679.5,0.0L671.1,0.0L662.4,0.0L658.3,0.0L653.9,0.0L654.5,0.0L659.8,0.0Z M237.0,0.0L240.1,0.0L245.5,0.0L247.9,0.0L247.3,0.0L250.5,0.0L252.3,0.0L256.0,0.0L260.1,0.0L264.5,0.0L270.1,0.0L274.6,0.0L277.6,0.0L278.2,0.0L276.5,0.0L272.4,0.0L268.8,0.0L260.8,0.0L255.1,0.0L250.7,0.0L243.3,0.0L242.3,0.0L242.0,0.0L239.2,0.0L233.4,0.0L230.2,0.0L231.3,0.0L237.0,0.0Z M177.2,0.0L176.8,0.0L174.7,0.0L172.1,0.0L166.9,0.0L162.5,0.0L158.7,0.0L163.5,0.0L169.2,0.0L173.4,0.0L177.2,0.0Z M239.3,0.0L238.1,0.0L232.9,0.0L232.1,0.0L237.7,0.0L239.7,0.0L239.3,0.0Z M193.9,0.0L188.7,0.0L184.6,0.0L186.9,0.0L190.9,0.0L194.9,0.0L193.9,0.0Z M568.7,0.0L562.5,0.0L557.6,0.0L559.5,0.0L557.8,0.0L563.6,0.0L564.7,0.0L568.7,0.0Z M195.4,0.0L192.0,0.0L187.4,0.0L187.4,0.0L190.3,0.0L191.8,0.0L195.4,0.0Z M233.8,0.0L229.7,0.0L227.4,0.0L226.2,0.0L226.0,0.0L229.6,0.0L231.2,0.0L234.6,0.0L233.8,0.0Z M222.1,0.0L223.1,0.0L218.6,0.0L214.0,0.0L207.8,0.0L210.5,0.0L207.2,0.0L207.0,0.0L212.4,0.0L219.9,0.0L222.1,0.0Z M791.9,0.0L776.2,0.0L781.3,0.0L783.6,0.0L785.7,0.0L792.7,0.0L791.9,0.0Z M550.7,0.0L559.8,0.0L552.9,0.0L551.3,0.0L548.9,0.0L547.6,0.0L544.2,0.0L538.2,0.0L540.7,0.0L536.6,0.0L531.2,0.0L529.0,0.0L536.6,0.0L538.1,0.0L542.1,0.0L543.1,0.0L547.2,0.0L550.7,0.0Z M570.7,0.0L576.1,0.0L572.0,0.0L564.0,0.0L555.8,0.0L555.3,0.0L551.3,0.0L548.2,0.0L556.8,0.0L560.9,0.0L563.7,0.0L570.7,0.0Z M642.0,0.0L638.3,0.0L635.8,0.0L635.4,0.0L632.2,0.0L629.2,0.0L630.8,0.0L624.6,0.0L630.0,0.0L634.2,0.0L634.8,0.0L636.4,0.0L639.0,0.0L643.1,0.0L642.0,0.0Z M777.6,0.0L771.5,0.0L763.8,0.0L759.2,0.0L757.1,0.0L753.3,0.0L760.5,0.0L766.5,0.0L771.9,0.0L778.3,0.0L777.6,0.0Z M258.3,0.0L261.6,0.0L257.8,0.0L252.7,0.0L247.8,0.0L242.0,0.0L239.0,0.0L239.1,0.0L241.3,0.0L236.2,0.0L233.1,0.0L231.4,0.0L233.3,0.0L235.2,0.0L238.1,0.0L236.8,0.0L243.3,0.0L246.9,0.0L251.5,0.0L256.1,0.0L258.3,0.0Z M309.7,0.0L317.1,0.0L323.1,0.0L328.2,0.0L328.1,0.0L321.3,0.0L314.6,0.0L312.1,0.0L318.1,0.0L311.6,0.0L307.0,0.0L302.3,0.0L296.5,0.0L294.8,0.0L286.4,0.0L290.2,0.0L288.3,0.0L290.6,0.0L287.9,0.0L283.6,0.0L282.3,0.0L278.4,0.0L278.8,0.0L283.6,0.0L283.6,0.0L276.2,0.0L269.0,0.0L260.8,0.0L256.7,0.0L251.4,0.0L251.1,0.0L256.2,0.0L254.8,0.0L256.5,0.0L264.0,0.0L260.2,0.0L255.7,0.0L257.9,0.0L262.8,0.0L263.6,0.0L259.7,0.0L258.5,0.0L266.1,0.0L268.3,0.0L272.6,0.0L266.4,0.0L256.7,0.0L251.8,0.0L249.4,0.0L246.2,0.0L245.6,0.0L249.7,0.0L253.0,0.0L258.4,0.0L262.5,0.0L265.9,0.0L268.9,0.0L271.1,0.0L274.7,0.0L279.7,0.0L288.2,0.0L289.7,0.0L297.7,0.0L303.7,0.0L309.7,0.0Z M424.7,0.0L442.1,0.0L437.0,0.0L426.3,0.0L411.4,0.0L412.8,0.0L422.6,0.0L431.0,0.0L436.4,0.0L438.7,0.0L435.6,0.0L442.7,0.0L456.2,0.0L464.5,0.0L466.1,0.0L454.8,0.0L453.2,0.0L444.3,0.0L450.7,0.0L447.5,0.0L445.3,0.0L445.4,0.0L448.7,0.0L444.3,0.0L439.8,0.0L444.9,0.0L445.6,0.0L442.6,0.0L446.2,0.0L440.0,0.0L443.2,0.0L442.3,0.0L438.4,0.0L434.5,0.0L438.0,0.0L438.1,0.0L432.6,0.0L431.1,0.0L434.9,0.0L438.5,0.0L439.6,0.0L434.6,0.0L432.5,0.0L429.0,0.0L430.0,0.0L426.8,0.0L434.1,0.0L437.9,0.0L430.5,2.1L422.9,4.3L414.8,5.2L411.7,5.2L408.9,6.3L405.0,9.2L399.0,11.2L397.1,11.3L393.4,12.0L389.4,12.6L387.0,14.3L387.0,16.3L385.6,18.1L381.1,20.3L382.2,22.5L380.9,24.8L379.5,27.5L375.6,27.7L371.5,25.4L365.9,25.4L363.2,23.9L361.4,21.2L356.6,17.7L355.2,15.9L354.8,13.4L350.9,10.8L351.9,8.8L350.1,7.8L352.8,4.6L357.0,3.5L358.1,2.4L358.7,0.2L355.5,1.2L354.0,1.6L351.5,2.0L348.1,1.1L347.9,0.0L349.0,0.0L351.6,0.0L357.3,0.0L352.5,0.0L350.0,0.0L347.2,0.0L344.9,0.0L348.0,0.0L346.3,0.0L344.1,0.0L340.8,0.0L337.2,0.0L337.3,0.0L329.8,0.0L323.9,0.0L316.5,0.0L309.7,0.0L306.5,0.0L301.7,0.0L309.0,0.0L314.5,0.0L302.7,0.0L296.4,0.0L296.8,0.0L307.3,0.0L317.5,0.0L318.5,0.0L311.0,0.0L313.5,0.0L323.1,0.0L327.1,0.0L326.0,0.0L332.6,0.0L341.1,0.0L349.6,0.0L352.7,0.0L360.0,0.0L366.7,0.0L370.6,0.0L376.3,0.0L369.7,0.0L370.1,0.0L379.4,0.0L389.2,0.0L392.7,0.0L402.5,0.0L424.7,0.0Z" fill="#d6d2cb" fill-rule="evenodd"/>
</svg>